<svg width="17" height="19" viewBox="0 0 17 19" fill="none" xmlns="http://www.w3.org/2000/svg">
<path d="M10.1777 17.6097L14.344 16.6789C15.1071 16.5093 15.6499 15.829 15.6499 15.0442V3.25659C15.6499 2.47175 15.1071 1.7915 14.3449 1.62191L10.1787 0.691032C9.13709 0.458314 8.1499 1.25446 8.1499 2.32666V15.9751C8.1499 17.0463 9.13709 17.8425 10.1777 17.6097Z" stroke="white" stroke-width="1.3" stroke-linecap="round" stroke-linejoin="round"/>
<path d="M10.9624 8.16895V10.0533" stroke="white" stroke-width="1.3" stroke-linecap="round" stroke-linejoin="round"/>
<path d="M0.649902 12.8989V14.8229C0.649902 15.864 1.48896 16.7072 2.5249 16.7072H5.3374" stroke="white" stroke-width="1.3" stroke-linecap="round" stroke-linejoin="round"/>
<path d="M0.649902 5.36149V3.47713C0.649902 2.43602 1.48896 1.59277 2.5249 1.59277H5.3374" stroke="white" stroke-width="1.3" stroke-linecap="round" stroke-linejoin="round"/>
<path d="M0.649902 9.12988H5.3374" stroke="white" stroke-width="1.3" stroke-linecap="round" stroke-linejoin="round"/>
<path d="M3.4624 11.0148L5.3374 9.13045L3.4624 7.24609" stroke="white" stroke-width="1.3" stroke-linecap="round" stroke-linejoin="round"/>
</svg>
